<mxfile host="app.diagrams.net" modified="2024-07-15T19:34:06.439Z" agent="Mozilla/5.0 (X11; Linux x86_64) AppleWebKit/537.36 (KHTML, like Gecko) Chrome/126.0.0.0 Safari/537.36" etag="vJn9bHcC2Gmr9Fy2vzQu" version="24.6.5" type="device">
  <diagram name="Page-1" id="wLuaD-EWDUMBaQPGzSKo">
    <mxGraphModel dx="4307" dy="1589" grid="1" gridSize="10" guides="1" tooltips="1" connect="1" arrows="1" fold="1" page="1" pageScale="1" pageWidth="850" pageHeight="1100" math="0" shadow="0">
      <root>
        <mxCell id="0" />
        <mxCell id="1" parent="0" />
        <mxCell id="kzy9SZ01eO7g0koqDPFa-40" value="&lt;font style=&quot;font-size: 27px;&quot;&gt;messages_to_print&lt;/font&gt;" style="swimlane;fontStyle=0;childLayout=stackLayout;horizontal=1;startSize=60;fillColor=none;horizontalStack=0;resizeParent=1;resizeParentMax=0;resizeLast=0;collapsible=1;marginBottom=0;html=1;strokeColor=default;" parent="1" vertex="1">
          <mxGeometry x="60" y="420" width="420" height="210" as="geometry">
            <mxRectangle x="70" y="140" width="270" height="60" as="alternateBounds" />
          </mxGeometry>
        </mxCell>
        <mxCell id="kzy9SZ01eO7g0koqDPFa-41" value="Item 1" style="text;strokeColor=none;fillColor=none;align=left;verticalAlign=top;spacingLeft=4;spacingRight=4;overflow=hidden;rotatable=0;points=[[0,0.5],[1,0.5]];portConstraint=eastwest;whiteSpace=wrap;html=1;" parent="kzy9SZ01eO7g0koqDPFa-40" vertex="1">
          <mxGeometry y="60" width="420" height="2" as="geometry" />
        </mxCell>
        <mxCell id="kzy9SZ01eO7g0koqDPFa-42" value="&lt;span style=&quot;font-size: 20px;&quot;&gt;message 0&lt;/span&gt;&lt;div&gt;&lt;span style=&quot;font-size: 20px;&quot;&gt;message 1&lt;/span&gt;&lt;span style=&quot;font-size: 20px;&quot;&gt;&lt;br&gt;.&lt;br&gt;.&lt;br&gt;.&lt;/span&gt;&lt;/div&gt;" style="text;strokeColor=none;fillColor=none;align=center;verticalAlign=top;spacingLeft=4;spacingRight=4;overflow=hidden;rotatable=0;points=[[0,0.5],[1,0.5]];portConstraint=eastwest;whiteSpace=wrap;html=1;" parent="kzy9SZ01eO7g0koqDPFa-40" vertex="1">
          <mxGeometry y="62" width="420" height="148" as="geometry" />
        </mxCell>
        <mxCell id="kzy9SZ01eO7g0koqDPFa-45" value="&lt;font style=&quot;font-size: 27px;&quot;&gt;recv_ack_queue&lt;/font&gt;" style="swimlane;fontStyle=0;childLayout=stackLayout;horizontal=1;startSize=60;fillColor=none;horizontalStack=0;resizeParent=1;resizeParentMax=0;resizeLast=0;collapsible=1;marginBottom=0;html=1;strokeColor=default;" parent="1" vertex="1">
          <mxGeometry x="-1300" y="390" width="420" height="210" as="geometry">
            <mxRectangle x="70" y="140" width="270" height="60" as="alternateBounds" />
          </mxGeometry>
        </mxCell>
        <mxCell id="kzy9SZ01eO7g0koqDPFa-46" value="Item 1" style="text;strokeColor=none;fillColor=none;align=left;verticalAlign=top;spacingLeft=4;spacingRight=4;overflow=hidden;rotatable=0;points=[[0,0.5],[1,0.5]];portConstraint=eastwest;whiteSpace=wrap;html=1;" parent="kzy9SZ01eO7g0koqDPFa-45" vertex="1">
          <mxGeometry y="60" width="420" height="2" as="geometry" />
        </mxCell>
        <mxCell id="kzy9SZ01eO7g0koqDPFa-47" value="&lt;span style=&quot;font-size: 20px;&quot;&gt;ack 0&lt;/span&gt;&lt;div&gt;&lt;span style=&quot;font-size: 20px;&quot;&gt;ack 1&lt;br&gt;&lt;/span&gt;&lt;span style=&quot;font-size: 20px;&quot;&gt;.&lt;br&gt;.&lt;br&gt;.&lt;/span&gt;&lt;/div&gt;" style="text;strokeColor=none;fillColor=none;align=center;verticalAlign=top;spacingLeft=4;spacingRight=4;overflow=hidden;rotatable=0;points=[[0,0.5],[1,0.5]];portConstraint=eastwest;whiteSpace=wrap;html=1;" parent="kzy9SZ01eO7g0koqDPFa-45" vertex="1">
          <mxGeometry y="62" width="420" height="148" as="geometry" />
        </mxCell>
        <mxCell id="kzy9SZ01eO7g0koqDPFa-49" value="" style="edgeStyle=orthogonalEdgeStyle;rounded=0;orthogonalLoop=1;jettySize=auto;html=1;" parent="1" source="kzy9SZ01eO7g0koqDPFa-48" target="kzy9SZ01eO7g0koqDPFa-42" edge="1">
          <mxGeometry relative="1" as="geometry">
            <Array as="points">
              <mxPoint x="-60" y="556" />
              <mxPoint x="-60" y="556" />
            </Array>
          </mxGeometry>
        </mxCell>
        <mxCell id="kzy9SZ01eO7g0koqDPFa-50" value="" style="edgeStyle=orthogonalEdgeStyle;rounded=0;orthogonalLoop=1;jettySize=auto;html=1;exitX=0;exitY=0.5;exitDx=0;exitDy=0;entryX=1;entryY=0.5;entryDx=0;entryDy=0;" parent="1" source="kzy9SZ01eO7g0koqDPFa-48" target="kzy9SZ01eO7g0koqDPFa-47" edge="1">
          <mxGeometry relative="1" as="geometry">
            <Array as="points">
              <mxPoint x="-830" y="555" />
              <mxPoint x="-830" y="526" />
            </Array>
          </mxGeometry>
        </mxCell>
        <mxCell id="kzy9SZ01eO7g0koqDPFa-51" value="&lt;font style=&quot;font-size: 32px;&quot;&gt;TASKS&lt;/font&gt;" style="swimlane;whiteSpace=wrap;html=1;startSize=80;" parent="1" vertex="1">
          <mxGeometry x="-760" y="160" width="760" height="1710" as="geometry" />
        </mxCell>
        <mxCell id="kzy9SZ01eO7g0koqDPFa-48" value="&lt;font style=&quot;font-size: 18px;&quot;&gt;&lt;font style=&quot;font-size: 32px;&quot;&gt;message_handler_loop&lt;/font&gt;&lt;br&gt;&lt;i&gt;Upon receiving a message, check its type. If it is an ACK message, add it to the &lt;code&gt;recv_ack_queue&lt;/code&gt;. If it is an MSG message, add it to &lt;code&gt;messages_to_print&lt;/code&gt; and send back an ACK message.&lt;/i&gt;&lt;br&gt;&lt;/font&gt;" style="rounded=1;whiteSpace=wrap;html=1;spacingLeft=15;spacingRight=15;" parent="kzy9SZ01eO7g0koqDPFa-51" vertex="1">
          <mxGeometry x="97.5" y="310" width="565" height="169" as="geometry" />
        </mxCell>
        <mxCell id="kzy9SZ01eO7g0koqDPFa-67" style="edgeStyle=orthogonalEdgeStyle;rounded=0;orthogonalLoop=1;jettySize=auto;html=1;exitX=1;exitY=0.5;exitDx=0;exitDy=0;entryX=1;entryY=0.5;entryDx=0;entryDy=0;" parent="kzy9SZ01eO7g0koqDPFa-51" source="kzy9SZ01eO7g0koqDPFa-55" target="kzy9SZ01eO7g0koqDPFa-59" edge="1">
          <mxGeometry relative="1" as="geometry">
            <Array as="points">
              <mxPoint x="820" y="579" />
              <mxPoint x="820" y="1304" />
            </Array>
          </mxGeometry>
        </mxCell>
        <mxCell id="kzy9SZ01eO7g0koqDPFa-68" style="edgeStyle=orthogonalEdgeStyle;rounded=0;orthogonalLoop=1;jettySize=auto;html=1;exitX=1;exitY=0.5;exitDx=0;exitDy=0;entryX=1;entryY=0.5;entryDx=0;entryDy=0;" parent="kzy9SZ01eO7g0koqDPFa-51" source="kzy9SZ01eO7g0koqDPFa-55" target="kzy9SZ01eO7g0koqDPFa-60" edge="1">
          <mxGeometry relative="1" as="geometry">
            <Array as="points">
              <mxPoint x="820" y="579" />
              <mxPoint x="820" y="1444" />
            </Array>
          </mxGeometry>
        </mxCell>
        <mxCell id="kzy9SZ01eO7g0koqDPFa-69" style="edgeStyle=orthogonalEdgeStyle;rounded=0;orthogonalLoop=1;jettySize=auto;html=1;exitX=1;exitY=0.5;exitDx=0;exitDy=0;entryX=1;entryY=0.5;entryDx=0;entryDy=0;dashed=1;" parent="kzy9SZ01eO7g0koqDPFa-51" source="kzy9SZ01eO7g0koqDPFa-55" target="kzy9SZ01eO7g0koqDPFa-62" edge="1">
          <mxGeometry relative="1" as="geometry">
            <Array as="points">
              <mxPoint x="820" y="579" />
              <mxPoint x="820" y="1524" />
            </Array>
          </mxGeometry>
        </mxCell>
        <mxCell id="kzy9SZ01eO7g0koqDPFa-70" style="edgeStyle=orthogonalEdgeStyle;rounded=0;orthogonalLoop=1;jettySize=auto;html=1;exitX=1;exitY=0.5;exitDx=0;exitDy=0;entryX=1;entryY=0.5;entryDx=0;entryDy=0;dashed=1;" parent="kzy9SZ01eO7g0koqDPFa-51" source="kzy9SZ01eO7g0koqDPFa-55" target="kzy9SZ01eO7g0koqDPFa-63" edge="1">
          <mxGeometry relative="1" as="geometry">
            <Array as="points">
              <mxPoint x="820" y="579" />
              <mxPoint x="820" y="1594" />
            </Array>
          </mxGeometry>
        </mxCell>
        <mxCell id="kzy9SZ01eO7g0koqDPFa-55" value="&lt;font style=&quot;&quot; color=&quot;#0e1417&quot;&gt;&lt;font style=&quot;font-size: 32px;&quot;&gt;fetch_and_send_loop&lt;/font&gt;&lt;br&gt;&lt;i style=&quot;font-size: 18px;&quot;&gt;read messages to send from messages_to_send send them and add them to sent_messages. Then launch a&amp;nbsp;timer for the sent messages adding it to the tasks list. If the list is empty send an ALIVE message by default.&lt;/i&gt;&lt;/font&gt;" style="rounded=1;whiteSpace=wrap;html=1;spacingLeft=15;spacingRight=15;" parent="kzy9SZ01eO7g0koqDPFa-51" vertex="1">
          <mxGeometry x="97.5" y="499" width="565" height="160" as="geometry" />
        </mxCell>
        <mxCell id="kzy9SZ01eO7g0koqDPFa-56" value="&lt;font style=&quot;&quot;&gt;&lt;font style=&quot;font-size: 32px;&quot;&gt;acknoledge_handling_loop&lt;/font&gt;&lt;br&gt;&lt;span style=&quot;font-size: 18px;&quot;&gt;&lt;i&gt;read received acks and check whether the sequence number is inside sent_messages. If not that&#39;s a duplicated ack so just ignore it. If yes remove the message from sent_messages.&lt;/i&gt;&lt;/span&gt;&lt;/font&gt;" style="rounded=1;whiteSpace=wrap;html=1;perimeterSpacing=0;spacingLeft=15;spacingRight=15;" parent="kzy9SZ01eO7g0koqDPFa-51" vertex="1">
          <mxGeometry x="97.5" y="679" width="565" height="160" as="geometry" />
        </mxCell>
        <mxCell id="kzy9SZ01eO7g0koqDPFa-57" value="&lt;font style=&quot;&quot;&gt;&lt;font style=&quot;font-size: 32px;&quot;&gt;received_message_loop&lt;/font&gt;&lt;br&gt;&lt;span style=&quot;font-size: 18px;&quot;&gt;&lt;i&gt;read in order from messages_to_print and fill sequentially a window. Once the window is filled, print it and go with the next ones.&lt;/i&gt;&lt;/span&gt;&lt;/font&gt;" style="rounded=1;whiteSpace=wrap;html=1;spacingRight=15;spacingLeft=15;" parent="kzy9SZ01eO7g0koqDPFa-51" vertex="1">
          <mxGeometry x="102.5" y="859" width="560" height="160" as="geometry" />
        </mxCell>
        <mxCell id="kzy9SZ01eO7g0koqDPFa-58" value="&lt;font style=&quot;&quot;&gt;&lt;span style=&quot;font-size: 32px;&quot;&gt;connection_status_monitor&lt;/span&gt;&lt;br&gt;&lt;font style=&quot;font-size: 18px;&quot;&gt;&lt;i&gt;if a packet is lost, the connection is considered as not reliable anymore and all tasks are ended.&lt;/i&gt;&lt;/font&gt;&lt;/font&gt;" style="rounded=1;whiteSpace=wrap;html=1;spacingLeft=15;spacingRight=15;" parent="kzy9SZ01eO7g0koqDPFa-51" vertex="1">
          <mxGeometry x="102.5" y="1039" width="555" height="160" as="geometry" />
        </mxCell>
        <mxCell id="kzy9SZ01eO7g0koqDPFa-59" value="&lt;font style=&quot;&quot;&gt;&lt;font style=&quot;font-size: 32px;&quot;&gt;timer 1 (on_timeout)&lt;/font&gt;&lt;br&gt;&lt;i style=&quot;font-size: 18px;&quot;&gt;if the sequence is not in sent_messages end the timer and cosider the message as delivered. I&lt;/i&gt;&lt;/font&gt;&lt;i style=&quot;font-size: 18px; background-color: initial;&quot;&gt;f still in sent_messages try 3 times to resend. After retry consider the packet as lost.&lt;/i&gt;" style="rounded=1;whiteSpace=wrap;html=1;dashed=1;dashPattern=12 12;spacingLeft=15;spacingRight=15;" parent="kzy9SZ01eO7g0koqDPFa-51" vertex="1">
          <mxGeometry x="102.5" y="1219" width="550" height="170" as="geometry" />
        </mxCell>
        <mxCell id="kzy9SZ01eO7g0koqDPFa-60" value="&lt;font style=&quot;font-size: 32px;&quot;&gt;timer 2&lt;/font&gt;" style="rounded=1;whiteSpace=wrap;html=1;dashed=1;dashPattern=12 12;" parent="kzy9SZ01eO7g0koqDPFa-51" vertex="1">
          <mxGeometry x="102.5" y="1409" width="550" height="70" as="geometry" />
        </mxCell>
        <mxCell id="kzy9SZ01eO7g0koqDPFa-62" value="&lt;font style=&quot;font-size: 34px;&quot;&gt;•&lt;/font&gt;" style="rounded=1;whiteSpace=wrap;html=1;dashed=1;dashPattern=12 12;" parent="kzy9SZ01eO7g0koqDPFa-51" vertex="1">
          <mxGeometry x="105" y="1499" width="550" height="50" as="geometry" />
        </mxCell>
        <mxCell id="kzy9SZ01eO7g0koqDPFa-63" value="&lt;font style=&quot;font-size: 34px;&quot;&gt;•&lt;/font&gt;" style="rounded=1;whiteSpace=wrap;html=1;dashed=1;dashPattern=12 12;" parent="kzy9SZ01eO7g0koqDPFa-51" vertex="1">
          <mxGeometry x="105" y="1569" width="550" height="50" as="geometry" />
        </mxCell>
        <mxCell id="kzy9SZ01eO7g0koqDPFa-84" value="" style="edgeStyle=orthogonalEdgeStyle;rounded=0;orthogonalLoop=1;jettySize=auto;html=1;" parent="kzy9SZ01eO7g0koqDPFa-51" source="kzy9SZ01eO7g0koqDPFa-82" target="kzy9SZ01eO7g0koqDPFa-48" edge="1">
          <mxGeometry relative="1" as="geometry" />
        </mxCell>
        <mxCell id="kzy9SZ01eO7g0koqDPFa-82" value="&lt;font style=&quot;font-size: 32px;&quot;&gt;UDP SOCKET&lt;br&gt;&lt;br&gt;&lt;/font&gt;" style="shape=offPageConnector;whiteSpace=wrap;html=1;" parent="kzy9SZ01eO7g0koqDPFa-51" vertex="1">
          <mxGeometry x="120" y="110" width="520" height="130" as="geometry" />
        </mxCell>
        <mxCell id="kzy9SZ01eO7g0koqDPFa-66" style="edgeStyle=orthogonalEdgeStyle;rounded=0;orthogonalLoop=1;jettySize=auto;html=1;exitX=0;exitY=0.5;exitDx=0;exitDy=0;entryX=0;entryY=0.5;entryDx=0;entryDy=0;" parent="1" source="kzy9SZ01eO7g0koqDPFa-47" target="kzy9SZ01eO7g0koqDPFa-56" edge="1">
          <mxGeometry relative="1" as="geometry">
            <Array as="points">
              <mxPoint x="-1420" y="526" />
              <mxPoint x="-1420" y="919" />
            </Array>
          </mxGeometry>
        </mxCell>
        <mxCell id="kzy9SZ01eO7g0koqDPFa-71" value="&lt;font style=&quot;font-size: 27px;&quot;&gt;sent_messages&lt;/font&gt;" style="swimlane;fontStyle=0;childLayout=stackLayout;horizontal=1;startSize=60;fillColor=none;horizontalStack=0;resizeParent=1;resizeParentMax=0;resizeLast=0;collapsible=1;marginBottom=0;html=1;strokeColor=default;" parent="1" vertex="1">
          <mxGeometry x="260" y="1180" width="420" height="210" as="geometry">
            <mxRectangle x="70" y="140" width="270" height="60" as="alternateBounds" />
          </mxGeometry>
        </mxCell>
        <mxCell id="kzy9SZ01eO7g0koqDPFa-72" value="Item 1" style="text;strokeColor=none;fillColor=none;align=left;verticalAlign=top;spacingLeft=4;spacingRight=4;overflow=hidden;rotatable=0;points=[[0,0.5],[1,0.5]];portConstraint=eastwest;whiteSpace=wrap;html=1;" parent="kzy9SZ01eO7g0koqDPFa-71" vertex="1">
          <mxGeometry y="60" width="420" height="2" as="geometry" />
        </mxCell>
        <mxCell id="kzy9SZ01eO7g0koqDPFa-73" value="&lt;span style=&quot;font-size: 20px;&quot;&gt;message 0&lt;br&gt;message 1&lt;/span&gt;&lt;div&gt;&lt;span style=&quot;font-size: 20px;&quot;&gt;message 2&lt;/span&gt;&lt;span style=&quot;font-size: 20px;&quot;&gt;&lt;br&gt;.&lt;br&gt;.&lt;/span&gt;&lt;/div&gt;" style="text;strokeColor=none;fillColor=none;align=center;verticalAlign=top;spacingLeft=4;spacingRight=4;overflow=hidden;rotatable=0;points=[[0,0.5],[1,0.5]];portConstraint=eastwest;whiteSpace=wrap;html=1;" parent="kzy9SZ01eO7g0koqDPFa-71" vertex="1">
          <mxGeometry y="62" width="420" height="148" as="geometry" />
        </mxCell>
        <mxCell id="kzy9SZ01eO7g0koqDPFa-74" style="edgeStyle=orthogonalEdgeStyle;rounded=0;orthogonalLoop=1;jettySize=auto;html=1;exitX=1;exitY=0.5;exitDx=0;exitDy=0;entryX=0;entryY=0.5;entryDx=0;entryDy=0;" parent="1" source="kzy9SZ01eO7g0koqDPFa-55" target="kzy9SZ01eO7g0koqDPFa-73" edge="1">
          <mxGeometry relative="1" as="geometry">
            <Array as="points">
              <mxPoint x="60" y="740" />
              <mxPoint x="60" y="1316" />
            </Array>
          </mxGeometry>
        </mxCell>
        <mxCell id="kzy9SZ01eO7g0koqDPFa-75" value="&lt;font style=&quot;font-size: 27px;&quot;&gt;messages_to_send&lt;/font&gt;" style="swimlane;fontStyle=0;childLayout=stackLayout;horizontal=1;startSize=60;fillColor=none;horizontalStack=0;resizeParent=1;resizeParentMax=0;resizeLast=0;collapsible=1;marginBottom=0;html=1;strokeColor=default;" parent="1" vertex="1">
          <mxGeometry x="-1250" y="640" width="420" height="210" as="geometry">
            <mxRectangle x="70" y="140" width="270" height="60" as="alternateBounds" />
          </mxGeometry>
        </mxCell>
        <mxCell id="kzy9SZ01eO7g0koqDPFa-76" value="Item 1" style="text;strokeColor=none;fillColor=none;align=left;verticalAlign=top;spacingLeft=4;spacingRight=4;overflow=hidden;rotatable=0;points=[[0,0.5],[1,0.5]];portConstraint=eastwest;whiteSpace=wrap;html=1;" parent="kzy9SZ01eO7g0koqDPFa-75" vertex="1">
          <mxGeometry y="60" width="420" height="2" as="geometry" />
        </mxCell>
        <mxCell id="kzy9SZ01eO7g0koqDPFa-77" value="&lt;span style=&quot;font-size: 20px;&quot;&gt;.&lt;br&gt;.&lt;br&gt;message 3&lt;/span&gt;&lt;div&gt;&lt;span style=&quot;font-size: 20px;&quot;&gt;message 4&lt;/span&gt;&lt;span style=&quot;font-size: 20px;&quot;&gt;&lt;br&gt;.&lt;/span&gt;&lt;/div&gt;" style="text;strokeColor=none;fillColor=none;align=center;verticalAlign=top;spacingLeft=4;spacingRight=4;overflow=hidden;rotatable=0;points=[[0,0.5],[1,0.5]];portConstraint=eastwest;whiteSpace=wrap;html=1;" parent="kzy9SZ01eO7g0koqDPFa-75" vertex="1">
          <mxGeometry y="62" width="420" height="148" as="geometry" />
        </mxCell>
        <mxCell id="kzy9SZ01eO7g0koqDPFa-78" style="edgeStyle=orthogonalEdgeStyle;rounded=0;orthogonalLoop=1;jettySize=auto;html=1;entryX=0;entryY=0.5;entryDx=0;entryDy=0;" parent="1" target="kzy9SZ01eO7g0koqDPFa-55" edge="1">
          <mxGeometry relative="1" as="geometry">
            <mxPoint x="-830" y="780" as="sourcePoint" />
            <Array as="points">
              <mxPoint x="-830" y="780" />
              <mxPoint x="-790" y="780" />
              <mxPoint x="-790" y="739" />
            </Array>
          </mxGeometry>
        </mxCell>
        <mxCell id="kzy9SZ01eO7g0koqDPFa-79" style="edgeStyle=orthogonalEdgeStyle;rounded=0;orthogonalLoop=1;jettySize=auto;html=1;entryX=1;entryY=0.5;entryDx=0;entryDy=0;exitX=0.499;exitY=0.998;exitDx=0;exitDy=0;exitPerimeter=0;" parent="1" source="kzy9SZ01eO7g0koqDPFa-42" target="kzy9SZ01eO7g0koqDPFa-57" edge="1">
          <mxGeometry relative="1" as="geometry">
            <mxPoint x="450" y="360" as="sourcePoint" />
            <Array as="points">
              <mxPoint x="270" y="1099" />
            </Array>
          </mxGeometry>
        </mxCell>
        <mxCell id="kzy9SZ01eO7g0koqDPFa-85" value="&lt;font style=&quot;font-size: 69px;&quot;&gt;Client - Server Main View&lt;/font&gt;" style="text;html=1;align=center;verticalAlign=middle;resizable=0;points=[];autosize=1;strokeColor=none;fillColor=none;" parent="1" vertex="1">
          <mxGeometry x="-780" y="25" width="800" height="100" as="geometry" />
        </mxCell>
        <mxCell id="Ix2MoO1PK52X3rqTJUCM-1" value="" style="endArrow=classic;startArrow=classic;html=1;rounded=0;entryX=0.5;entryY=0;entryDx=0;entryDy=0;exitX=1;exitY=0.5;exitDx=0;exitDy=0;" edge="1" parent="1" source="kzy9SZ01eO7g0koqDPFa-56" target="kzy9SZ01eO7g0koqDPFa-71">
          <mxGeometry width="50" height="50" relative="1" as="geometry">
            <mxPoint x="-100" y="1010" as="sourcePoint" />
            <mxPoint x="-50" y="960" as="targetPoint" />
            <Array as="points">
              <mxPoint x="470" y="920" />
            </Array>
          </mxGeometry>
        </mxCell>
      </root>
    </mxGraphModel>
  </diagram>
</mxfile>
